<?xml version="1.0" standalone="no"?>
<!DOCTYPE svg PUBLIC "-//W3C//DTD SVG 20010904//EN"
 "http://www.w3.org/TR/2001/REC-SVG-20010904/DTD/svg10.dtd">
<svg version="1.0" xmlns="http://www.w3.org/2000/svg"
 width="143.000000pt" height="143.000000pt" viewBox="0 0 143.000000 143.000000"
 preserveAspectRatio="xMidYMid meet">
<metadata>
Created by potrace 1.14, written by Peter Selinger 2001-2017
</metadata>
<g transform="translate(0.000000,143.000000) scale(0.100000,-0.100000)"
fill="#000000" stroke="none">
<path d="M709 1306 c-2 -2 -17 -7 -34 -10 -57 -11 -133 -34 -166 -52 -37 -18
-139 -119 -139 -136 0 -5 -9 -22 -20 -38 -11 -15 -22 -44 -24 -65 l-5 -37 67
65 c61 59 140 107 174 107 8 0 18 4 24 9 42 39 274 64 375 41 154 -35 308
-154 362 -280 l28 -65 -5 48 c-7 61 -63 180 -110 233 -50 58 -132 110 -229
146 -68 26 -99 32 -188 35 -58 1 -108 1 -110 -1z"/>
<path d="M734 1165 c-106 -23 -225 -96 -277 -169 l-22 -31 42 35 c141 120 303
164 457 124 199 -51 335 -215 315 -381 -3 -32 -5 -60 -3 -62 10 -11 15 13 21
90 5 75 3 91 -20 146 -37 91 -107 166 -192 208 -111 53 -206 65 -321 40z"/>
<path d="M1125 900 c3 -5 10 -10 16 -10 5 0 9 5 9 10 0 6 -7 10 -16 10 -8 0
-12 -4 -9 -10z"/>
<path d="M770 871 c0 -7 7 -14 15 -17 8 -4 15 -12 15 -20 0 -8 5 -14 10 -14 6
0 10 11 10 25 0 14 -4 25 -9 25 -5 0 -16 3 -25 6 -9 3 -16 1 -16 -5z"/>
<path d="M633 848 c2 -7 19 -13 38 -13 32 0 34 -2 39 -40 4 -32 9 -41 28 -43
12 -2 22 1 22 7 0 6 -6 11 -14 11 -14 0 -26 29 -26 68 0 20 -5 22 -46 22 -32
0 -44 -4 -41 -12z"/>
<path d="M101 834 c0 -11 3 -14 6 -6 3 7 2 16 -1 19 -3 4 -6 -2 -5 -13z"/>
<path d="M447 843 c-10 -10 -8 -68 3 -97 9 -25 40 -37 40 -16 0 6 -6 10 -14
10 -19 0 -24 17 -19 68 4 42 2 48 -10 35z"/>
<path d="M502 843 c-23 -9 -1 -23 39 -23 l39 0 0 -105 c0 -72 4 -105 11 -105
8 0 10 15 5 46 -3 26 -6 80 -6 120 l0 74 -37 -1 c-21 0 -44 -3 -51 -6z"/>
<path d="M1079 833 c-8 -34 3 -163 13 -163 6 0 7 31 3 88 -8 93 -10 103 -16
75z"/>
<path d="M1350 784 c0 -34 -3 -77 -6 -95 -4 -27 -3 -30 5 -17 17 25 25 132 13
154 -9 15 -11 7 -12 -42z"/>
<path d="M860 814 c0 -26 103 -140 118 -130 17 10 15 26 -3 26 -8 0 -15 3 -15
8 -1 4 -23 31 -50 61 -37 41 -50 50 -50 35z"/>
<path d="M807 723 c3 -49 7 -90 9 -92 2 -2 4 37 4 87 0 51 -4 92 -9 92 -5 0
-6 -39 -4 -87z"/>
<path d="M311 774 c0 -11 3 -14 6 -6 3 7 2 16 -1 19 -3 4 -6 -2 -5 -13z"/>
<path d="M311 734 c0 -11 3 -14 6 -6 3 7 2 16 -1 19 -3 4 -6 -2 -5 -13z"/>
<path d="M315 645 c21 -237 303 -403 574 -340 118 28 246 108 303 188 24 35
16 31 -45 -23 -130 -115 -336 -172 -490 -136 -175 41 -275 138 -332 321 l-15
50 5 -60z"/>
<path d="M81 664 c0 -11 3 -14 6 -6 3 7 2 16 -1 19 -3 4 -6 -2 -5 -13z"/>
<path d="M78 561 c-4 -46 -12 -89 -17 -95 -10 -12 2 -94 18 -125 18 -32 125
-125 179 -154 71 -39 183 -58 342 -60 120 -1 146 2 235 26 157 44 267 103 350
189 82 85 114 126 65 83 -19 -16 -37 -32 -40 -35 -26 -27 -121 -86 -179 -110
-179 -76 -345 -90 -536 -45 -60 14 -116 31 -125 38 -8 7 -33 21 -55 32 -21 11
-50 30 -63 43 -14 12 -29 22 -33 22 -5 0 -9 6 -9 13 0 7 -14 28 -31 47 -16 19
-41 47 -54 62 -13 14 -21 29 -18 32 3 3 1 11 -5 18 -6 8 -12 34 -14 58 -2 35
-5 26 -10 -39z m18 -183 c14 -28 15 -31 2 -20 -14 11 -31 52 -22 52 2 0 11
-15 20 -32z m35 -55 c13 -16 12 -17 -3 -4 -10 7 -18 15 -18 17 0 8 8 3 21 -13z"/>
<path d="M1033 620 c4 -23 127 -12 127 11 0 6 -27 9 -65 7 -52 -2 -65 -6 -62
-18z"/>
<path d="M790 593 c0 -19 13 -22 65 -15 71 10 68 28 -5 28 -39 -1 -60 -5 -60
-13z"/>
<path d="M630 579 c-25 -6 -62 -8 -82 -7 -26 3 -38 -1 -38 -9 0 -25 189 -11
198 15 4 14 -13 14 -78 1z"/>
</g>
</svg>
